<svg width="51" height="24" viewBox="0 0 51 24" fill="none" xmlns="http://www.w3.org/2000/svg">
<path d="M14.4012 8.22045C14.7047 8.42975 14.7523 8.85683 14.5216 9.14469L8.3532 16.8423C7.8302 17.497 6.83651 17.497 6.31352 16.8423L0.145111 9.14469C-0.0855613 8.85683 -0.038121 8.42959 0.265316 8.22011C1.34069 7.47773 3.88349 6 7.33336 6C10.7786 6 13.3246 7.47817 14.4012 8.22045Z" fill="#121212"/>
<path d="M49.3333 7.66667C49.3333 7.11438 48.8856 6.66667 48.3333 6.66667H47.3333V5.33333H43.3333V6.66667H42.3333C41.781 6.66667 41.3333 7.11438 41.3333 7.66667V17.6667C41.3333 18.219 41.781 18.6667 42.3333 18.6667H48.3333C48.8856 18.6667 49.3333 18.219 49.3333 17.6667V7.66667Z" fill="#121212"/>
<path d="M30.1953 6.4714C30.6152 6.05143 31.3333 6.34887 31.3333 6.94281V17.3333C31.3333 18.0697 30.7364 18.6667 30 18.6667H19.6095C19.0155 18.6667 18.7181 17.9486 19.1381 17.5286L30.1953 6.4714Z" fill="#121212"/>
</svg>
