<svg width="17" height="16" viewBox="0 0 17 16" fill="none" xmlns="http://www.w3.org/2000/svg">
<path fill-rule="evenodd" clip-rule="evenodd" d="M11.793 0.0021993C10.5549 -0.0350931 9.34959 0.403056 8.42446 1.22667C7.49933 0.403056 6.29396 -0.0350931 5.05589 0.0021993C3.59053 -0.00280853 2.19998 0.648895 1.26626 1.77827C0.463703 2.75179 -0.376753 4.51439 0.179902 7.38777C1.0692 11.9741 7.73053 15.7384 8.01181 15.8934C8.26675 16.0355 8.57711 16.0355 8.83205 15.8934C9.11585 15.7359 15.7772 11.9715 16.664 7.38777C17.2206 4.51439 16.381 2.756 15.5784 1.77827C14.6458 0.649843 13.257 -0.00178555 11.793 0.0021993ZM14.852 7.09812C14.2404 10.2565 9.79641 13.1948 8.427 14.0338C7.0576 13.1948 2.61359 10.2573 2.00196 7.09812C1.58079 4.92579 2.15713 3.66393 2.7154 2.98744C3.31373 2.2655 4.20377 1.84925 5.14141 1.85284C6.14659 1.77745 7.11753 2.23534 7.69879 3.05887C7.84134 3.32226 8.11602 3.48713 8.41551 3.48906H8.42536C8.72284 3.487 8.99652 3.32605 9.1429 3.06708C9.7235 2.23702 10.6993 1.77533 11.7093 1.85284C12.6481 1.84827 13.5395 2.26461 14.1386 2.98744C14.6952 3.66393 15.2716 4.92579 14.8504 7.09812H14.852Z" fill="#3185A9"/>
</svg>
