<svg width="18" height="18" viewBox="0 0 18 18" fill="none" xmlns="http://www.w3.org/2000/svg">
<path fill-rule="evenodd" clip-rule="evenodd" d="M12.6024 0.00247421C11.2794 -0.0394798 9.99126 0.453438 9.00264 1.38001C8.01402 0.453438 6.72593 -0.0394798 5.40289 0.00247421C3.83695 -0.00315959 2.35097 0.730007 1.35317 2.00056C0.495528 3.09576 -0.40261 5.07869 0.192249 8.31124C1.14258 13.4708 8.26109 17.7057 8.56167 17.8801C8.83411 18.04 9.16578 18.04 9.43821 17.8801C9.74149 17.7029 16.86 13.468 17.8076 8.31124C18.4025 5.07869 17.5053 3.1005 16.6476 2.00056C15.651 0.731074 14.1668 -0.00200874 12.6024 0.00247421ZM15.8714 7.98539C15.2178 11.5385 10.4688 14.8441 9.00537 15.788C7.54197 14.8441 2.79297 11.5394 2.13936 7.98539C1.68929 5.54151 2.30517 4.12192 2.90176 3.36087C3.54116 2.54869 4.49228 2.08041 5.49428 2.08444C6.56844 1.99963 7.60602 2.51475 8.22717 3.44122C8.37951 3.73754 8.67304 3.92302 8.99308 3.9252H9.00361C9.32151 3.92288 9.61397 3.74181 9.7704 3.45046C10.3908 2.51664 11.4336 1.99724 12.5129 2.08444C13.5162 2.0793 14.4688 2.54769 15.109 3.36087C15.7038 4.12192 16.3197 5.54151 15.8696 7.98539H15.8714Z" fill="white"/>
</svg>
