<svg width="23" height="17" viewBox="0 0 23 17" fill="none" xmlns="http://www.w3.org/2000/svg">
<path fill-rule="evenodd" clip-rule="evenodd" d="M16.675 13.6C17.6277 13.6 18.4 14.3611 18.4 15.3C18.4 16.2389 17.6277 17 16.675 17H6.325C5.37231 17 4.6 16.2389 4.6 15.3C4.6 14.3611 5.37231 13.6 6.325 13.6H16.675ZM21.275 6.8C22.2277 6.8 23 7.56112 23 8.5C23 9.43888 22.2277 10.2 21.275 10.2H1.725C0.772309 10.2 0 9.43888 0 8.5C0 7.56112 0.772309 6.8 1.725 6.8H21.275ZM18.975 0C19.9277 0 20.7 0.761116 20.7 1.7C20.7 2.63888 19.9277 3.4 18.975 3.4H4.025C3.07231 3.4 2.3 2.63888 2.3 1.7C2.3 0.761116 3.07231 0 4.025 0H18.975Z" fill="#121212"/>
</svg>
