<svg width="18" height="16" viewBox="0 0 18 16" fill="none" xmlns="http://www.w3.org/2000/svg">
<path fill-rule="evenodd" clip-rule="evenodd" d="M9.00001 3.2613L16.1977 9.58L16.1981 13.3239C16.1981 14.7683 15.0416 15.9454 13.5949 15.9982L13.4935 16H11.6889C11.2136 16 10.8243 15.6361 10.7899 15.1745L10.7874 15.108V13.0435C10.7874 12.0914 10.0296 11.3141 9.07722 11.2679L8.98738 11.2657C8.02042 11.2657 7.23333 12.0142 7.18652 12.9548L7.18432 13.0435V15.108C7.18432 15.5782 6.81655 15.9635 6.35006 15.9976L6.28278 16H4.47818C3.01841 16 1.82876 14.8557 1.77544 13.4242L1.77345 13.3239V9.60533L9.00001 3.2613ZM8.39084 0.221883C8.71115 -0.0565584 9.18119 -0.0729375 9.51912 0.172746L9.58086 0.221883L17.6947 7.35828C18.0676 7.68366 18.1039 8.2464 17.7758 8.61606C17.4963 8.92977 17.0434 9.00276 16.6844 8.81818L9.59791 2.59692L9.53601 2.5472C9.21825 2.31415 8.78174 2.31415 8.46398 2.54722L8.40208 2.59694L1.39795 8.74632C1.02659 8.98924 0.524536 8.92802 0.224745 8.59094C-0.0773074 8.25131 -0.0725215 7.74576 0.224771 7.41222L0.277025 7.35828L8.39084 0.221883Z" fill="white"/>
</svg>
