<svg width="24" height="24" viewBox="0 0 24 24" fill="none" xmlns="http://www.w3.org/2000/svg">
<g clip-path="url(#clip0_1_333)">
<path d="M12 6.30577L3.44051 13.3622C3.44051 13.3721 3.43801 13.3868 3.43301 13.4067C3.42811 13.4265 3.4255 13.4409 3.4255 13.4512V20.5965C3.4255 20.8545 3.51982 21.0781 3.70841 21.2663C3.89695 21.4547 4.12021 21.5495 4.37825 21.5495H10.0944V15.8331H13.9057V21.5497H19.6217C19.8797 21.5497 20.1033 21.4551 20.2916 21.2663C20.4802 21.0783 20.5748 20.8545 20.5748 20.5965V13.4512C20.5748 13.4115 20.5694 13.3816 20.5598 13.3622L12 6.30577Z" fill="black"/>
<path d="M23.8344 11.7544L20.5745 9.04505V2.97141C20.5745 2.83256 20.5299 2.71837 20.4403 2.629C20.3514 2.53974 20.2372 2.49511 20.0981 2.49511H17.24C17.101 2.49511 16.9868 2.53974 16.8974 2.629C16.8082 2.71837 16.7636 2.83261 16.7636 2.97141V5.8742L13.1314 2.8373C12.8142 2.57926 12.437 2.45027 12.0003 2.45027C11.5636 2.45027 11.1865 2.57926 10.869 2.8373L0.165387 11.7544C0.0661644 11.8336 0.0117822 11.9403 0.00166703 12.0743C-0.00839601 12.2082 0.0262772 12.3251 0.105791 12.4243L1.02872 13.5259C1.10824 13.6152 1.21231 13.6698 1.34136 13.6897C1.4605 13.6998 1.57964 13.6649 1.69878 13.5856L12 4.9959L22.3013 13.5855C22.3809 13.6548 22.4849 13.6893 22.6139 13.6893H22.6587C22.7875 13.6697 22.8914 13.6148 22.9713 13.5257L23.8944 12.4243C23.9737 12.3249 24.0085 12.2081 23.9982 12.0741C23.988 11.9404 23.9334 11.8338 23.8344 11.7544Z" fill="black"/>
</g>
<defs>
<clipPath id="clip0_1_333">
<rect width="24.0001" height="24" fill="white"/>
</clipPath>
</defs>
</svg>
