<svg width="25" height="24" viewBox="0 0 25 24" fill="none" xmlns="http://www.w3.org/2000/svg">
<path d="M0.0200015 11.8464C0.0698496 11.76 0.141133 11.688 0.226969 11.6372C0.312804 11.5864 0.410289 11.5586 0.510008 11.5564C1.28002 11.5664 2.05003 11.4164 2.83004 11.5364C3.06004 11.5764 3.16005 11.6164 3.14005 11.8664C3.12005 12.1164 3.14005 12.5864 3.14005 12.9464C3.14005 13.6565 3.55005 14.2065 4.24006 14.2865C4.93007 14.3665 5.54008 14.3965 6.18009 14.2565C6.8201 14.1165 7.21011 13.6565 7.22011 12.9564C7.23011 12.2564 7.2201 12.1564 7.98012 12.3964C9.07193 12.7471 10.1436 13.1578 11.1902 13.6265C11.2802 13.6665 11.4402 13.6765 11.4502 13.8065C11.4602 13.9365 11.3002 13.9565 11.2102 14.0065C9.44014 14.9165 7.86012 16.1065 6.29009 17.3065C5.65009 17.7965 5.09007 18.3965 4.49007 18.9365C3.25005 20.0765 2.17003 21.3666 1.12002 22.6866C0.920015 22.9366 0.770013 23.2166 0.820013 23.5366C0.870014 23.8566 0.720009 24.0266 0.380004 23.9966C0.0399994 23.9666 0 23.7466 0 23.4666C0.0100001 19.6265 0.0100008 15.7965 0.0100008 11.9564C0.0100008 11.9164 0.0200015 11.8864 0.0200015 11.8464Z" fill="black"/>
<path d="M12.8402 23.9866H2.12003C1.71003 23.9466 1.53002 23.5966 1.79003 23.2666C2.27003 22.6666 2.75004 22.0566 3.26005 21.4766C4.77007 19.7565 6.49009 18.2565 8.33012 16.8965C10.1701 15.5365 12.1202 14.4565 14.1802 13.5365C14.3102 13.4765 14.4702 13.3365 14.5902 13.4765C14.7102 13.6165 14.5002 13.6965 14.4402 13.8165C13.9602 14.7165 14.2902 16.0165 15.5602 16.4165C15.7748 16.4927 16.0037 16.52 16.2302 16.4965C16.5202 16.4565 16.5902 16.5865 16.5802 16.8565C16.5702 17.1265 16.5702 17.5765 16.5702 17.9465C16.5802 18.6565 16.9903 19.1665 17.7003 19.2365C18.2954 19.2949 18.8946 19.2982 19.4903 19.2465C20.2303 19.1765 20.6503 18.6365 20.6703 17.8465C20.6803 17.5165 20.6903 17.1965 20.6703 16.8665C20.6503 16.5365 20.7403 16.4865 21.0403 16.4865C22.1203 16.4865 22.8303 15.8465 22.9703 14.7865C23.0403 14.2465 22.8003 13.7865 22.5203 13.3565C22.3703 13.1465 22.3303 12.9664 22.4803 12.7164C22.6284 12.4667 22.685 12.1733 22.6403 11.8864C22.6203 11.6764 22.7203 11.5864 22.9103 11.5764C23.1003 11.5664 23.3303 11.5464 23.5403 11.5564C23.7504 11.5664 23.9904 11.7564 24.0004 12.0464C24.0104 12.1464 24.0104 12.2464 24.0104 12.3464V23.3166C24.0104 23.8966 23.9004 23.9966 23.3303 23.9966H12.8402V23.9866Z" fill="black"/>
<path d="M3.99006 11.9064C3.99006 11.6064 3.97006 11.3064 3.99006 11.0064C4.01006 10.7064 3.93006 10.6164 3.64005 10.6364C3.35005 10.6564 2.94004 10.6464 2.59004 10.6464C2.24003 10.6464 1.96003 10.5364 1.79003 10.2064C1.62002 9.8764 1.59002 9.4964 1.80003 9.14639C2.01003 8.79639 2.19003 8.48638 2.39004 8.15638C2.50004 7.98638 2.51004 7.87637 2.33003 7.71637C1.94003 7.38637 1.88003 6.96636 2.12003 6.50635C2.36004 6.04635 2.52004 5.78634 2.74004 5.42634C2.84004 5.26633 2.83004 5.16633 2.68004 5.02633C2.25003 4.62633 2.20003 4.18632 2.49004 3.67631L4.32007 0.536264C4.73007 -0.173746 5.62008 -0.183746 6.05009 0.536264C6.6701 1.57628 7.27011 2.6363 7.87012 3.69631C8.16012 4.18632 8.10012 4.61633 7.69012 5.00633C7.53011 5.15633 7.52011 5.26633 7.63011 5.44634C7.85012 5.79634 8.06012 6.14635 8.25012 6.51635C8.44012 6.88636 8.44012 7.37637 8.06012 7.69637C7.84011 7.87637 7.88012 7.99637 7.99012 8.19638C8.10012 8.39638 8.39013 8.85639 8.57013 9.19639C8.94013 9.9164 8.49012 10.6464 7.68011 10.6464C7.34011 10.6464 7.0001 10.6564 6.6701 10.6464C6.3401 10.6364 6.3601 10.7164 6.3701 10.9464C6.3801 11.5364 6.3801 12.1164 6.3701 12.7064C6.3601 13.2965 6.17009 13.4665 5.68008 13.4265C5.2942 13.3914 4.90595 13.3914 4.52007 13.4265C4.14006 13.4465 4.00006 13.2465 3.99006 12.9164C3.98006 12.5864 3.99006 12.2464 3.99006 11.9064Z" fill="black"/>
<path d="M19.8003 16.9065V17.8765C19.8103 18.2165 19.6303 18.3865 19.3003 18.3865H17.9503C17.5603 18.3765 17.4103 18.2265 17.4003 17.8365C17.3903 17.2065 17.3903 16.5865 17.4103 15.9565C17.4203 15.6765 17.3203 15.5865 17.0403 15.6065C16.7603 15.6265 16.3502 15.6165 16.0002 15.6065C15.8437 15.6031 15.6905 15.5606 15.5545 15.4829C15.4185 15.4052 15.3041 15.2948 15.2216 15.1617C15.1392 15.0286 15.0913 14.8769 15.0823 14.7206C15.0733 14.5643 15.1036 14.4082 15.1702 14.2665C15.3602 13.8865 15.5802 13.5165 15.8002 13.1565C15.9002 12.9764 15.9502 12.8464 15.7402 12.6764C15.3602 12.3464 15.3002 11.8864 15.5502 11.4264C15.8002 10.9664 15.9302 10.7264 16.1402 10.3864C16.2402 10.2264 16.2502 10.1264 16.0902 9.9864C15.6602 9.5764 15.6102 9.15639 15.9102 8.63638L17.6903 5.55634C18.1603 4.75633 19.0303 4.72633 19.5103 5.51634C20.1203 6.54635 20.7103 7.58637 21.3003 8.62638C21.6303 9.20639 21.5803 9.5464 21.1003 10.0264C20.9603 10.1664 21.0103 10.2564 21.0803 10.3864L21.6503 11.3864C21.9303 11.8764 21.9003 12.2964 21.4803 12.6664C21.3003 12.8464 21.3203 12.9664 21.4303 13.1464C21.6303 13.4765 21.8303 13.8065 22.0103 14.1465C22.3803 14.8765 21.9403 15.5965 21.1203 15.6165C20.7703 15.6165 20.4203 15.6265 20.0803 15.6065C19.7403 15.5865 19.7903 15.6865 19.8003 15.8965C19.8103 16.1065 19.8003 16.5665 19.8003 16.9065Z" fill="black"/>
</svg>
