<svg width="13" height="16" viewBox="0 0 13 16" fill="none" xmlns="http://www.w3.org/2000/svg">
<path fill-rule="evenodd" clip-rule="evenodd" d="M6.5 0C10.0899 0 13 2.86538 13 6.4C13 8.73906 11.0127 11.8139 7.07995 15.7603C6.76144 16.0799 6.23855 16.0799 5.92005 15.7603L5.55139 15.3871C1.86312 11.6194 0 8.66481 0 6.4C0 2.86538 2.91015 0 6.5 0ZM8.53125 5.6C8.53125 4.49543 7.62183 3.6 6.5 3.6C5.37817 3.6 4.46875 4.49543 4.46875 5.6C4.46875 6.70457 5.37817 7.6 6.5 7.6C7.62183 7.6 8.53125 6.70457 8.53125 5.6Z" fill="#333333"/>
</svg>
