<svg width="19" height="16" viewBox="0 0 19 16" fill="none" xmlns="http://www.w3.org/2000/svg">
<path fill-rule="evenodd" clip-rule="evenodd" d="M16.15 0C17.724 0 19 1.264 19 2.82323V10.3518C19 11.9111 17.724 13.1751 16.15 13.1751H9.18333C8.97778 13.1751 8.77777 13.2411 8.61333 13.3633L5.32 15.8101C4.69373 16.2754 3.8 15.8327 3.8 15.0572V13.1751H2.85C1.27599 13.1751 0 11.9111 0 10.3518V2.82323C0 1.264 1.27599 0 2.85 0H16.15ZM16.15 1.88215H2.85C2.32533 1.88215 1.9 2.30349 1.9 2.82323V10.3518C1.9 10.8716 2.32533 11.2929 2.85 11.2929H4.75C5.27467 11.2929 5.7 11.7142 5.7 12.234V13.1751L7.47333 11.8576C7.96666 11.491 8.56668 11.2929 9.18333 11.2929H16.15C16.6747 11.2929 17.1 10.8716 17.1 10.3518V2.82323C17.1 2.30349 16.6747 1.88215 16.15 1.88215ZM5.7 5.64646C6.22467 5.64646 6.65 6.06779 6.65 6.58753C6.65 7.10727 6.22467 7.52861 5.7 7.52861C5.17533 7.52861 4.75 7.10727 4.75 6.58753C4.75 6.06779 5.17533 5.64646 5.7 5.64646ZM9.5 5.64646C10.0247 5.64646 10.45 6.06779 10.45 6.58753C10.45 7.10727 10.0247 7.52861 9.5 7.52861C8.97533 7.52861 8.55 7.10727 8.55 6.58753C8.55 6.06779 8.97533 5.64646 9.5 5.64646ZM13.3 5.64646C13.8247 5.64646 14.25 6.06779 14.25 6.58753C14.25 7.10727 13.8247 7.52861 13.3 7.52861C12.7753 7.52861 12.35 7.10727 12.35 6.58753C12.35 6.06779 12.7753 5.64646 13.3 5.64646Z" fill="white"/>
</svg>
