<svg width="13" height="15" viewBox="0 0 13 15" fill="none" xmlns="http://www.w3.org/2000/svg">
<path fill-rule="evenodd" clip-rule="evenodd" d="M6.5 1.92308C9.45201 1.92308 11.8451 4.33385 11.8451 7.30769L11.8449 11.1536L12.2364 11.1538C12.6581 11.1538 13 11.4982 13 11.9231C13 12.3479 12.6581 12.6923 12.2364 12.6923H8.79075C8.79075 13.9668 7.76515 15 6.5 15C5.23485 15 4.20925 13.9668 4.20925 12.6923H0.763583C0.341868 12.6923 0 12.3479 0 11.9231C0 11.4982 0.341868 11.1538 0.763583 11.1538L1.15477 11.1536L1.15492 7.30769C1.15492 4.33385 3.54799 1.92308 6.5 1.92308ZM7.26358 12.6923H5.73642C5.73642 13.1171 6.07828 13.4615 6.5 13.4615C6.92172 13.4615 7.26358 13.1171 7.26358 12.6923ZM7.26358 0C7.6853 0 8.02717 0.344396 8.02717 0.769231C8.02717 1.19407 7.6853 1.53846 7.26358 1.53846H5.73642C5.3147 1.53846 4.97283 1.19407 4.97283 0.769231C4.97283 0.344396 5.3147 0 5.73642 0H7.26358Z" fill="#121212"/>
</svg>
