<svg width="16" height="18" viewBox="0 0 16 18" fill="none" xmlns="http://www.w3.org/2000/svg">
<path fill-rule="evenodd" clip-rule="evenodd" d="M8 9C13.7974 9 16.5963 11.8335 15.8938 17.133C15.8279 17.6294 15.4095 18 14.9147 18H1.08528C0.590512 18 0.172059 17.6294 0.106246 17.133C-0.596343 11.8335 2.20259 9 8 9ZM8 11C3.68837 11 1.81588 12.5697 1.98397 16H14.016C14.1841 12.5697 12.3116 11 8 11ZM8 0C10.1822 0 11.9513 1.79086 11.9513 4C11.9513 6.20914 10.1822 8 8 8C5.81778 8 4.04873 6.20914 4.04873 4C4.04873 1.79086 5.81778 0 8 0ZM8 2C6.90889 2 6.02437 2.89543 6.02437 4C6.02437 5.10457 6.90889 6 8 6C9.09111 6 9.97563 5.10457 9.97563 4C9.97563 2.89543 9.09111 2 8 2Z" fill="white"/>
</svg>
