<svg width="19" height="19" viewBox="0 0 19 19" fill="none" xmlns="http://www.w3.org/2000/svg">
<path fill-rule="evenodd" clip-rule="evenodd" d="M15.8149 13.5744L18.5198 16.241C19.1601 16.8721 19.1601 17.8955 18.5198 18.5266C17.8796 19.1578 16.8415 19.1578 16.2013 18.5266L13.4963 15.86C13.2829 15.6496 13.2829 15.3085 13.4963 15.0981L15.042 13.5744C15.2554 13.364 15.6014 13.364 15.8149 13.5744ZM8.19725 0C12.7245 0 16.3945 3.618 16.3945 8.08103C16.3945 12.5441 12.7245 16.1621 8.19725 16.1621C3.67003 16.1621 0 12.5441 0 8.08103C0 3.618 3.67003 0 8.19725 0ZM8.19725 2.15494C4.87729 2.15494 2.18593 4.80814 2.18593 8.08103C2.18593 11.3539 4.87729 14.0071 8.19725 14.0071C11.5172 14.0071 14.2086 11.3539 14.2086 8.08103C14.2086 4.80814 11.5172 2.15494 8.19725 2.15494ZM10.1862 3.06191C11.748 3.66375 12.9517 4.94806 13.4333 6.53459C13.6063 7.10468 13.2778 7.70513 12.6995 7.87573C12.1475 8.03858 11.5675 7.7509 11.3654 7.22858L11.3391 7.15239C11.0507 6.20232 10.3267 5.42977 9.39037 5.06897C8.82816 4.85233 8.55055 4.22741 8.77031 3.67317C8.99007 3.11894 9.62398 2.84527 10.1862 3.06191Z" fill="white"/>
</svg>
