<svg width="17" height="16" viewBox="0 0 17 16" fill="none" xmlns="http://www.w3.org/2000/svg">
<path d="M12.1498 9.76211H11.3819L11.1098 9.5225C12.0623 8.51079 12.6358 7.19734 12.6358 5.76852C12.6358 2.58252 9.80733 0 6.3179 0C2.82848 0 0 2.58252 0 5.76852C0 8.95452 2.82848 11.537 6.3179 11.537C7.8828 11.537 9.32134 11.0134 10.4294 10.1437L10.6918 10.3922V11.0933L15.5518 15.5218L17 14.1994L12.1498 9.76211ZM6.3179 9.76211C3.89766 9.76211 1.94397 7.97831 1.94397 5.76852C1.94397 3.55873 3.89766 1.77493 6.3179 1.77493C8.73815 1.77493 10.6918 3.55873 10.6918 5.76852C10.6918 7.97831 8.73815 9.76211 6.3179 9.76211Z" fill="#878686"/>
</svg>
