<svg width="18" height="24" viewBox="0 0 18 24" fill="none" xmlns="http://www.w3.org/2000/svg">
<path d="M16.3636 21.7497V0H1.63643V21.7497H0V23.7271H5.72738V19.7726H12.2726V23.7271H18V21.7497H16.3636ZM6.54548 16.8068H4.90905V14.8294H6.54548V16.8068ZM6.54548 12.8521H4.90905V10.875H6.54548V12.8521ZM6.54548 8.89765H4.90905V6.92029H6.54548V8.89765ZM6.54548 4.94324H4.90905V2.96588H6.54548V4.94324ZM9.81809 16.8068H8.18191V14.8294H9.81809V16.8068ZM9.81809 12.8521H8.18191V10.875H9.81809V12.8521ZM9.81809 8.89765H8.18191V6.92029H9.81809V8.89765ZM9.81809 4.94324H8.18191V2.96588H9.81809V4.94324ZM13.091 16.8068H11.4545V14.8294H13.091V16.8068ZM13.091 12.8521H11.4545V10.875H13.091V12.8521ZM13.091 8.89765H11.4545V6.92029H13.091V8.89765ZM13.091 4.94324H11.4545V2.96588H13.091V4.94324Z" fill="black"/>
</svg>
